<mxfile host="app.diagrams.net" modified="2024-07-16T13:31:03.912Z" agent="Mozilla/5.0 (Windows NT 10.0; Win64; x64) AppleWebKit/537.36 (KHTML, like Gecko) Chrome/126.0.0.0 Safari/537.36" version="24.6.5" etag="aoJbNG3wg62I7T0V_muo" type="github">
  <diagram name="Page-1" id="2FlNe5JWoSTX9C4OWkw6">
    <mxGraphModel>
      <root>
        <mxCell id="0" />
        <mxCell id="1" parent="0" />
      </root>
    </mxGraphModel>
  </diagram>
</mxfile>
